<svg width="45" height="32" viewBox="0 0 45 32" fill="none" xmlns="http://www.w3.org/2000/svg">
<path d="M16.9481 13.5817C16.9481 10.488 19.465 7.97111 22.5583 7.97111C25.6521 7.97111 28.169 10.488 28.169 13.5817C28.169 16.6751 25.6521 19.192 22.5583 19.192C19.465 19.192 16.9481 16.6751 16.9481 13.5817ZM26.778 19.9571C28.8432 18.5858 30.2088 16.2414 30.2088 13.5817C30.2088 9.3629 26.7772 5.93128 22.5583 5.93128C18.3399 5.93128 14.9079 9.3629 14.9079 13.5817C14.9079 16.2414 16.2735 18.5858 18.3391 19.9571C13.6653 21.6815 10.3177 26.1679 10.3177 31.433H12.3576C12.3576 25.8079 16.9336 21.2322 22.5583 21.2322C28.1835 21.2322 32.7591 25.8079 32.7591 31.433H34.7993C34.7993 26.1679 31.4514 21.6815 26.778 19.9571Z" fill="#F7CD05"/>
<path d="M36.9784 14.857C39.0439 13.4857 40.4096 11.141 40.4096 8.48127C40.4096 4.26283 36.9779 0.831213 32.7591 0.831213C30.7153 0.831213 28.8609 1.64095 27.4872 2.95149C26.9783 3.43661 26.5386 3.99091 26.1782 4.59952C26.8146 4.85656 27.4204 5.17434 27.9815 5.55487C28.3424 4.96798 28.8066 4.45351 29.3508 4.03516C30.2969 3.30829 31.4767 2.87104 32.7591 2.87104C35.8528 2.87104 38.3693 5.38794 38.3693 8.48127C38.3693 11.0493 36.6328 13.2146 34.2744 13.8783C33.7917 14.0139 33.2849 14.0919 32.7591 14.0919C32.5785 14.0919 32.4011 14.0815 32.2245 14.0646C32.1879 14.7991 32.0729 15.5119 31.8814 16.1945C32.1726 16.1692 32.461 16.1322 32.7591 16.1322C33.1734 16.1322 33.5793 16.1639 33.9808 16.2122C39.0307 16.8188 42.9599 21.1221 42.9599 26.3325H45.0001C45.0001 21.0678 41.6521 16.5815 36.9784 14.857Z" fill="#F7CD05"/>
<path d="M12.3575 16.1322C12.656 16.1322 12.944 16.1692 13.2357 16.1945C13.0442 15.5119 12.9287 14.7991 12.8925 14.0646C12.7164 14.0815 12.5382 14.0919 12.3575 14.0919C11.8322 14.0919 11.3254 14.0139 10.8426 13.8783C8.48383 13.2146 6.7473 11.0493 6.7473 8.48127C6.7473 5.38794 9.26421 2.87104 12.3575 2.87104C13.6403 2.87104 14.8201 3.30829 15.7662 4.03516C16.3105 4.45351 16.7743 4.96798 17.1351 5.55487C17.6967 5.17434 18.302 4.85656 18.9384 4.59952C18.5784 3.99091 18.1387 3.43661 17.6299 2.95149C16.2562 1.64095 14.4014 0.831213 12.3575 0.831213C8.1391 0.831213 4.70707 4.26283 4.70707 8.48127C4.70707 11.141 6.07272 13.4857 8.13829 14.857C3.4649 16.5815 0.116943 21.0678 0.116943 26.3325H2.15718C2.15718 21.1221 6.08599 16.8188 11.1359 16.2122C11.5373 16.1639 11.9436 16.1322 12.3575 16.1322Z" fill="#F7CD05"/>
</svg>
