<svg width="24" height="16" viewBox="0 0 24 16" fill="none" xmlns="http://www.w3.org/2000/svg">
<path d="M17.8999 8.20961C18.0137 8.09305 18.0137 7.90695 17.8999 7.79039L12.1981 1.95194C12.0869 1.83812 12.0839 1.65733 12.1913 1.53992L13.3848 0.234334C13.5011 0.107119 13.7004 0.103832 13.8208 0.227145L21.2071 7.79039C21.3209 7.90695 21.3209 8.09305 21.2071 8.20961L13.8208 15.7729C13.7004 15.8962 13.5011 15.8929 13.3848 15.7657L12.1913 14.4601C12.0839 14.3427 12.0869 14.1619 12.1981 14.0481L17.8999 8.20961Z" fill="#F7CD05"/>
<path d="M9.89986 8.20961C10.0137 8.09305 10.0137 7.90695 9.89986 7.79039L4.19805 1.95194C4.0869 1.83812 4.08392 1.65733 4.19126 1.53992L5.38478 0.234334C5.50108 0.107119 5.70041 0.103832 5.82083 0.227145L13.2071 7.79039C13.3209 7.90695 13.3209 8.09305 13.2071 8.20961L5.82083 15.7729C5.70041 15.8962 5.50108 15.8929 5.38478 15.7657L4.19126 14.4601C4.08392 14.3427 4.0869 14.1619 4.19806 14.0481L9.89986 8.20961Z" fill="#F7CD05"/>
</svg>
