<svg width="24" height="16" viewBox="0 0 24 16" fill="none" xmlns="http://www.w3.org/2000/svg">
<path d="M6.10014 7.79039C5.98631 7.90695 5.98631 8.09305 6.10014 8.20961L11.8019 14.0481C11.9131 14.1619 11.9161 14.3427 11.8087 14.4601L10.6152 15.7657C10.4989 15.8929 10.2996 15.8962 10.1792 15.7729L2.79293 8.20961C2.67911 8.09305 2.67911 7.90695 2.79293 7.79039L10.1792 0.227146C10.2996 0.103833 10.4989 0.107119 10.6152 0.234335L11.8087 1.53992C11.9161 1.65733 11.9131 1.83812 11.8019 1.95194L6.10014 7.79039Z" fill="#F7CD05"/>
<path d="M14.1001 7.79039C13.9863 7.90695 13.9863 8.09305 14.1001 8.20961L19.8019 14.0481C19.9131 14.1619 19.9161 14.3427 19.8087 14.4601L18.6152 15.7657C18.4989 15.8929 18.2996 15.8962 18.1792 15.7729L10.7929 8.20961C10.6791 8.09305 10.6791 7.90695 10.7929 7.79039L18.1792 0.227146C18.2996 0.103833 18.4989 0.107119 18.6152 0.234335L19.8087 1.53992C19.9161 1.65733 19.9131 1.83812 19.8019 1.95194L14.1001 7.79039Z" fill="#F7CD05"/>
</svg>
