<svg width="32" height="32" viewBox="0 0 32 32" fill="none" xmlns="http://www.w3.org/2000/svg">
<path d="M16.0004 32C7.16324 32 0 24.8368 0 16.0004C0 7.16324 7.16324 -2.16166e-06 16.0004 -2.16166e-06C24.8368 -2.16166e-06 32 7.16324 32 16.0004C32 24.8368 24.8368 32 16.0004 32Z" fill="#F8D737"/>
<path d="M13.5622 25.6716H17.4566V15.918H20.1748L20.464 12.6525H17.4566C17.4566 12.6525 17.4566 11.4334 17.4566 10.7928C17.4566 10.0226 17.6122 9.71829 18.3562 9.71829C18.9548 9.71829 20.464 9.71829 20.464 9.71829V6.32921C20.464 6.32921 18.2419 6.32921 17.7669 6.32921C14.8688 6.32921 13.5622 7.60548 13.5622 10.0487C13.5622 12.1767 13.5622 12.6525 13.5622 12.6525H11.536V15.9592H13.5622V25.6716Z" fill="#480976"/>
</svg>
