<svg width="32" height="32" viewBox="0 0 32 32" fill="none" xmlns="http://www.w3.org/2000/svg">
<path d="M16.0002 32C7.16338 32 -0.00012207 24.8368 -0.00012207 16.0004C-0.00012207 7.16409 7.16338 -1.43544e-06 16.0002 -1.43544e-06C24.8366 -1.43544e-06 31.9998 7.16409 31.9998 16.0004C31.9998 24.8368 24.8366 32 16.0002 32Z" fill="#F8D737"/>
<path d="M6 16.5C6 12.7666 6 10.8999 6.86722 9.54291C7.29764 8.86943 7.86943 8.29764 8.54291 7.86722C9.89986 7 11.7666 7 15.5 7V7C19.2334 7 21.1001 7 22.4571 7.86722C23.1306 8.29764 23.7024 8.86943 24.1328 9.54291C25 10.8999 25 12.7666 25 16.5V16.5C25 20.2334 25 22.1001 24.1328 23.4571C23.7024 24.1306 23.1306 24.7024 22.4571 25.1328C21.1001 26 19.2334 26 15.5 26V26C11.7666 26 9.89986 26 8.54291 25.1328C7.86943 24.7024 7.29764 24.1306 6.86722 23.4571C6 22.1001 6 20.2334 6 16.5V16.5Z" fill="#480976"/>
<path fill-rule="evenodd" clip-rule="evenodd" d="M15.5129 21.3474C18.1973 21.3474 20.3734 19.1713 20.3734 16.4869C20.3734 13.8026 18.1973 11.6265 15.5129 11.6265C12.8286 11.6265 10.6525 13.8026 10.6525 16.4869C10.6525 19.1713 12.8286 21.3474 15.5129 21.3474ZM15.513 19.658C17.2643 19.658 18.684 18.2383 18.684 16.487C18.684 14.7357 17.2643 13.316 15.513 13.316C13.7617 13.316 12.342 14.7357 12.342 16.487C12.342 18.2383 13.7617 19.658 15.513 19.658Z" fill="#F7CD05"/>
<circle cx="20.5554" cy="11.3927" r="1.14364" fill="#F7CD05"/>
</svg>
