<svg width="32" height="32" viewBox="0 0 32 32" fill="none" xmlns="http://www.w3.org/2000/svg">
<path d="M16.0007 32C7.16387 32 0.000366211 24.8368 0.000366211 16.0004C0.000366211 7.16408 7.16387 -2.16166e-06 16.0007 -2.16166e-06C24.8371 -2.16166e-06 32.0003 7.16408 32.0003 16.0004C32.0003 24.8368 24.8371 32 16.0007 32Z" fill="#F8D737"/>
<path d="M8.745 23.1309H12.0567V12.4339H8.745V23.1309Z" fill="#480976"/>
<path d="M10.3852 11.0332C11.4665 11.0332 12.3434 10.1479 12.3434 9.05827C12.3434 7.96865 11.4665 7.08502 10.3852 7.08502C9.3032 7.08502 8.42712 7.96865 8.42712 9.05827C8.42712 10.1479 9.3032 11.0332 10.3852 11.0332Z" fill="#480976"/>
<path d="M17.3501 17.5154C17.3501 16.0122 18.042 15.1159 19.3679 15.1159C20.5853 15.1159 21.1705 15.976 21.1705 17.5154C21.1705 19.0566 21.1705 23.1309 21.1705 23.1309H24.4662C24.4662 23.1309 24.4662 19.223 24.4662 16.3577C24.4662 13.4924 22.8419 12.1069 20.5735 12.1069C18.3043 12.1069 17.3501 13.8741 17.3501 13.8741V12.4339H14.1737V23.1309H17.3501C17.3501 23.1309 17.3501 19.1633 17.3501 17.5154Z" fill="#480976"/>
</svg>
