<svg width="20" height="36" viewBox="0 0 20 36" fill="none" xmlns="http://www.w3.org/2000/svg">
    <path d="M10.144 1.74618C5.41728 1.74618 1.57226 5.62103 1.57226 10.384C1.57226 12.8222 5.96929 21.684 8.59606 26.9789C9.20843 28.2144 9.75434 29.3145 10.144 30.1291C10.534 29.3122 11.0815 28.2078 11.6961 26.9681C14.3206 21.6763 18.7135 12.8183 18.7135 10.384C18.7135 5.62103 14.8692 1.74618 10.144 1.74618ZM10.144 31.0908C10.0324 31.0908 9.93084 31.0261 9.88423 30.9243C9.50565 30.1036 8.84704 28.7752 8.08377 27.2376C5.26333 21.5514 1 12.9582 1 10.384C1 5.30262 5.10211 1.16874 10.144 1.16874C15.1847 1.16874 19.2857 5.30262 19.2857 10.384C19.2857 12.9548 15.0262 21.5436 12.2077 27.2264C11.4429 28.7691 10.7824 30.1017 10.4034 30.9243C10.3564 31.0261 10.2548 31.0908 10.144 31.0908Z"
          fill="#F7CD05" stroke="#F7CD05"/>
    <path d="M10.1438 7.54825C8.19515 7.54825 6.6096 8.97385 6.6096 10.7258C6.6096 12.4792 8.19515 13.9063 10.1438 13.9063C12.0912 13.9063 13.6756 12.4792 13.6756 10.7258C13.6756 8.97385 12.0912 7.54825 10.1438 7.54825ZM10.1438 14.4675C7.85117 14.4675 5.98694 12.7887 5.98694 10.7258C5.98694 8.664 7.85117 6.98701 10.1438 6.98701C12.4348 6.98701 14.2986 8.664 14.2986 10.7258C14.2986 12.7887 12.4348 14.4675 10.1438 14.4675Z"
          fill="#F7CD05" stroke="#F7CD05"/>
    <path d="M8.15101 27.5429C4.38698 27.9332 1.57226 29.4267 1.57226 31.0506C1.57226 33.0053 5.4975 34.6567 10.144 34.6567C14.789 34.6567 18.7135 33.0053 18.7135 31.0506C18.7135 29.4267 15.8999 27.9332 12.1366 27.5429L12.1248 27.5681C11.3966 29.0679 10.7678 30.3633 10.4034 31.1751C10.3564 31.2786 10.2555 31.3452 10.144 31.3456C10.0324 31.3456 9.9316 31.2794 9.88423 31.1754C9.52361 30.3787 8.93758 29.1636 8.15101 27.5429ZM10.144 35.2467C5.01692 35.2467 1 33.4039 1 31.0506C1 29.0274 3.99961 27.3354 8.29312 26.9364C8.4104 26.925 8.52195 26.9896 8.57467 27.0979C9.23785 28.4653 9.7658 29.5543 10.1432 30.3621C10.5161 29.5638 11.033 28.4984 11.6132 27.3039L11.7126 27.0979C11.7653 26.9896 11.8761 26.9246 11.9945 26.9364C16.2876 27.3354 19.2857 29.0274 19.2857 31.0506C19.2857 33.4039 15.2703 35.2467 10.144 35.2467Z"
          fill="#F7CD05" stroke="#F7CD05"/>
</svg>
