<svg width="33" height="33" viewBox="0 0 33 33" fill="none" xmlns="http://www.w3.org/2000/svg">
<path d="M16.2857 11.5195C22.282 11.5195 27.1429 9.31004 27.1429 6.58448C27.1429 3.85892 22.282 1.64941 16.2857 1.64941C10.2895 1.64941 5.42859 3.85892 5.42859 6.58448C5.42859 9.31004 10.2895 11.5195 16.2857 11.5195Z" stroke="#F7CD05" stroke-width="1.66234" stroke-linecap="round" stroke-linejoin="round"/>
<path d="M5.42859 11.5195V12.5065C5.42859 15.2327 10.2886 17.4416 16.2857 17.4416C22.2828 17.4416 27.1429 15.2327 27.1429 12.5065V11.5195" stroke="#F7CD05" stroke-width="1.66234" stroke-linecap="round" stroke-linejoin="round"/>
<path d="M5.42859 17.4415V18.4285C5.42859 21.1547 10.2886 23.3636 16.2857 23.3636C22.2828 23.3636 27.1429 21.1547 27.1429 18.4285V17.4415" stroke="#F7CD05" stroke-width="1.66234" stroke-linecap="round" stroke-linejoin="round"/>
<path d="M5.42859 23.3636V24.3507C5.42859 27.0768 10.2886 29.2857 16.2857 29.2857C22.2828 29.2857 27.1429 27.0768 27.1429 24.3507V23.3636" stroke="#F7CD05" stroke-width="1.66234" stroke-linecap="round" stroke-linejoin="round"/>
</svg>
