<svg width="32" height="32" viewBox="0 0 32 32" fill="none" xmlns="http://www.w3.org/2000/svg">
<path d="M16 32C7.16358 32 0 24.8368 0 16.0004C0 7.16324 7.16358 -2.16166e-06 16 -2.16166e-06C24.8369 -2.16166e-06 32.0004 7.16324 32.0004 16.0004C32.0004 24.8368 24.8369 32 16 32Z" fill="#F8D737"/>
<path d="M7.47522 21.356C9.02339 22.3489 10.8619 22.9282 12.8373 22.9282C19.3315 22.9282 23.0006 17.4431 22.7796 12.523C23.463 12.0303 24.0561 11.4141 24.5252 10.712C23.8975 10.9903 23.2233 11.1787 22.5162 11.2627C23.238 10.8306 23.7928 10.1454 24.0535 9.32731C23.3776 9.72835 22.6292 10.0201 21.8331 10.1765C21.1946 9.49715 20.2856 9.07256 19.2793 9.07256C17.0217 9.07256 15.3622 11.1787 15.8723 13.3671C12.9648 13.2217 10.3873 11.8286 8.66279 9.71239C7.74611 11.2846 8.18717 13.3419 9.74526 14.3828C9.17144 14.3643 8.6316 14.2062 8.15993 13.9447C8.12252 15.5657 9.28343 17.0808 10.9656 17.4187C10.4734 17.5533 9.9341 17.5835 9.38693 17.4784C9.83093 18.869 11.1229 19.8796 12.654 19.9082C11.1837 21.0609 9.3311 21.5755 7.47522 21.356Z" fill="#480976"/>
</svg>
